<svg width="253" height="284" viewBox="0 0 253 284" fill="none" xmlns="http://www.w3.org/2000/svg">
<path fill-rule="evenodd" clip-rule="evenodd" d="M107.185 283.284C108.062 283.766 109.027 284 110.005 284H110.035C110.999 284 111.978 283.766 112.855 283.284C149.484 263.512 169.15 236.734 168.567 208.968L184.144 224.546C185.299 225.7 186.833 226.285 188.352 226.285C189.872 226.285 191.392 225.7 192.56 224.546C194.884 222.223 194.884 218.453 192.56 216.13L176.915 200.484C177.298 200.491 177.682 200.495 178.066 200.495C205.915 200.495 231.924 180.726 251.313 144.826C252.263 143.058 252.263 140.939 251.313 139.171C231.924 103.27 205.901 83.5011 178.051 83.5011C177.668 83.5011 177.284 83.505 176.9 83.5127L192.56 67.8521C194.884 65.5288 194.884 61.7591 192.56 59.4359C190.237 57.1126 186.467 57.1126 184.144 59.4359L168.552 75.0281C169.135 47.2627 149.469 20.484 112.84 0.712311C111.072 -0.237437 108.953 -0.237437 107.185 0.712311C70.55 20.4876 50.8837 47.2724 51.4739 75.0431L35.8667 59.4359C33.5434 57.1126 29.7737 57.1126 27.4504 59.4359C25.1272 61.7591 25.1272 65.5289 27.4504 67.8521L43.1108 83.5124C42.7318 83.5048 42.353 83.5011 41.9744 83.5011C14.1102 83.5011 -11.8982 103.27 -31.2877 139.171C-32.2374 140.939 -32.2374 143.058 -31.2877 144.826C-11.8982 180.726 14.1249 200.495 41.9744 200.495C42.348 200.495 42.7218 200.492 43.0957 200.484L27.4504 216.13C25.1272 218.453 25.1272 222.223 27.4504 224.546C28.6047 225.7 30.1389 226.285 31.6585 226.285C33.1781 226.285 34.6977 225.7 35.8667 224.546L51.4742 208.938C50.8765 236.714 70.5434 263.505 107.185 283.284ZM41.9744 188.587C47.2281 188.587 52.5196 187.666 57.7201 185.86L91.1858 152.394H99.602V160.81L66.1321 194.28C61.4626 207.622 62.7171 221.036 69.8823 234.16C77.3342 247.822 91.1713 260.607 110.02 271.259C128.854 260.607 142.706 247.822 150.158 234.16C157.301 221.05 158.574 207.665 153.923 194.325L120.409 160.81V152.394H128.825L162.279 185.848C167.493 187.674 172.798 188.587 178.066 188.587C200.655 188.587 222.309 172.061 239.303 141.976C222.309 111.891 200.655 95.3656 178.066 95.3656C172.812 95.3656 167.52 96.2864 162.32 98.0928L128.825 131.587H120.409V123.171L153.908 89.6718C158.577 76.3302 157.309 62.9166 150.158 49.7923C142.706 36.1306 128.869 23.3455 110.02 12.6937C91.1859 23.3455 77.3342 36.1306 69.8823 49.7923C62.7227 62.9326 61.4742 76.349 66.1502 89.7194L99.602 123.171V131.587H91.1858L57.6714 98.073C52.4866 96.2681 47.2117 95.3656 41.9744 95.3656C19.385 95.3656 -2.26925 111.891 -19.2624 141.976C-2.26925 172.061 19.385 188.587 41.9744 188.587ZM104.059 53.3013C98.242 47.2414 91.1524 42.5201 82.9597 39.2282C80.0374 42.4719 77.5096 45.8033 75.4202 49.1786C88.4323 53.6104 98.2887 62.0348 104.059 73.9732V136.044H42.0323C29.9439 130.224 21.6011 120.588 17.1641 107.391C13.7743 109.48 10.4574 111.993 7.19908 114.916C10.4649 123.091 15.1808 130.198 21.2839 136.044H-0.77883C-4.06642 136.044 -6.72571 138.703 -6.72571 141.991C-6.72571 145.278 -4.06642 147.938 -0.77883 147.938H21.2815C15.1795 153.78 10.4645 160.881 7.19908 169.066C10.4428 171.988 13.7743 174.501 17.1641 176.591C21.6011 163.379 29.9438 153.757 42.0322 147.938H104.059V209.978C98.2082 222.126 88.5076 230.524 75.464 234.891C77.5535 238.237 80.052 241.539 82.9597 244.754C91.1494 241.463 98.2446 236.744 104.059 230.693V252.775C104.059 256.063 106.718 258.722 110.006 258.722C113.293 258.722 115.952 256.063 115.952 252.775V230.695C121.769 236.754 128.859 241.472 137.051 244.754C139.945 241.539 142.458 238.237 144.547 234.891C131.504 230.524 121.803 222.126 115.952 209.978V147.938H177.979C190.067 153.758 198.41 163.393 202.847 176.591C206.237 174.501 209.554 171.988 212.812 169.066C209.546 160.891 204.83 153.783 198.727 147.938H220.79C224.078 147.938 226.737 145.278 226.737 141.991C226.737 138.703 224.078 136.044 220.79 136.044H198.727C204.826 130.202 209.536 123.101 212.812 114.916C209.568 111.993 206.237 109.48 202.847 107.391C198.41 120.602 190.067 130.225 177.979 136.044H115.952V74.0181C121.803 61.87 131.504 53.4723 144.547 49.1055C142.458 45.7595 139.959 42.4573 137.051 39.2428C128.862 42.5336 121.766 47.2527 115.952 53.3038V31.2064C115.952 27.9189 113.293 25.2596 110.006 25.2596C106.718 25.2596 104.059 27.9189 104.059 31.2064V53.3013ZM166.377 45.6134C164.945 42.618 163.294 39.6519 161.394 36.7442H161.409C160.824 35.8529 160.211 34.9616 159.582 34.0703C162.329 33.8365 165.164 33.705 168.072 33.705C180.345 33.705 193.744 35.8529 207.917 40.0903C209.831 40.6601 211.336 42.1651 211.906 44.0792C217.195 61.7591 219.139 78.0509 217.926 92.3994C214.156 89.7401 210.299 87.4753 206.354 85.6051C206.544 74.9387 204.893 63.1326 201.415 50.5813C189.507 47.2791 178.3 45.5988 168.072 45.5988C167.787 45.5988 167.505 45.6024 167.224 45.6061C166.943 45.6098 166.662 45.6134 166.377 45.6134ZM206.354 198.377C206.544 209.043 204.893 220.849 201.415 233.4C189.507 236.717 178.3 238.383 168.072 238.383C167.502 238.383 166.932 238.383 166.377 238.368C164.945 241.364 163.294 244.33 161.394 247.237C160.81 248.143 160.196 249.035 159.568 249.911C162.329 250.145 165.164 250.277 168.057 250.277C180.331 250.277 193.744 248.129 207.903 243.891C209.817 243.322 211.322 241.817 211.892 239.902C217.181 222.223 219.124 205.916 217.911 191.582C214.142 194.242 210.27 196.506 206.339 198.377H206.354ZM53.6344 238.368C55.0809 241.364 56.7174 244.33 58.6169 247.237H58.6023C59.1867 248.129 59.8004 249.02 60.4287 249.911C57.6817 250.145 54.8471 250.277 51.9394 250.277C39.6658 250.277 26.267 248.129 12.0939 243.891C10.1798 243.322 8.67479 241.817 8.10494 239.902C2.81558 222.223 0.87225 205.931 2.085 191.582C5.85477 194.242 9.7122 196.506 13.6573 198.377C13.4674 209.043 15.1185 220.849 18.596 233.4C30.5044 236.703 41.6968 238.383 51.9394 238.383C52.2232 238.383 52.5033 238.379 52.7834 238.376L52.7869 238.376L52.7904 238.376C53.0705 238.372 53.3506 238.368 53.6344 238.368ZM13.6572 85.6053C13.4673 74.9389 15.1184 63.1328 18.5959 50.5815C30.5043 47.2647 41.6967 45.599 51.9394 45.599C52.5092 45.599 53.0791 45.599 53.6343 45.6282C55.0662 42.6329 56.7173 39.6667 58.6168 36.759C59.2013 35.8531 59.815 34.9618 60.4433 34.0851C57.6817 33.8514 54.847 33.7199 51.954 33.7199C39.6803 33.7199 26.267 35.8677 12.1084 40.1051C10.1943 40.6749 8.68932 42.1799 8.11948 44.094C2.83011 61.7739 0.886784 78.0804 2.09954 92.4142C5.8693 89.755 9.74135 87.4902 13.6718 85.6199L13.6572 85.6053Z" fill="#F7F7F7"/>
</svg>
    