<svg width="373" height="373" viewBox="0 0 373 373" fill="none" xmlns="http://www.w3.org/2000/svg">
<path fill-rule="evenodd" clip-rule="evenodd" d="M182.803 372.06C183.955 372.693 185.221 373 186.507 373H186.546C187.812 373 189.098 372.693 190.249 372.06C238.357 346.092 264.186 310.921 263.42 274.455L283.88 294.914C285.396 296.43 287.411 297.198 289.406 297.198C291.402 297.198 293.398 296.43 294.933 294.914C297.984 291.863 297.984 286.912 294.933 283.86L274.384 263.311C274.888 263.322 275.393 263.327 275.896 263.327C312.473 263.327 346.632 237.362 372.098 190.211C373.345 187.889 373.345 185.106 372.098 182.784C346.632 135.633 312.454 109.669 275.877 109.669C275.373 109.669 274.869 109.674 274.365 109.684L294.933 89.1156C297.984 86.0643 297.984 81.1132 294.933 78.0619C291.882 75.0106 286.931 75.0106 283.88 78.0619L263.401 98.5404C264.167 62.0739 238.338 26.9033 190.23 0.935535C187.908 -0.311845 185.126 -0.311845 182.803 0.935535C134.687 26.908 108.858 62.0866 109.633 98.5601L89.1347 78.0619C86.0834 75.0106 81.1323 75.0106 78.081 78.0619C75.0297 81.1131 75.0297 86.0643 78.081 89.1156L98.649 109.684C98.1513 109.674 97.6538 109.669 97.1565 109.669C60.5603 109.669 26.4013 135.633 0.935534 182.784C-0.311845 185.106 -0.311845 187.889 0.935534 190.211C26.4013 237.362 60.5795 263.327 97.1565 263.327C97.6471 263.327 98.138 263.322 98.6291 263.312L78.0809 283.86C75.0296 286.912 75.0296 291.863 78.0809 294.914C79.5969 296.43 81.6119 297.198 83.6078 297.198C85.6036 297.198 87.5994 296.43 89.1346 294.914L109.633 274.415C108.848 310.896 134.678 346.083 182.803 372.06ZM97.1565 247.686C104.057 247.686 111.006 246.477 117.836 244.105L161.79 200.152H172.843V211.205L128.885 255.164C122.752 272.687 124.4 290.304 133.81 307.541C143.597 325.484 161.771 342.276 186.526 356.266C211.263 342.276 229.455 325.484 239.243 307.541C248.624 290.323 250.296 272.743 244.188 255.222L200.171 211.205V200.152H211.224L255.162 244.089C262.01 246.487 268.978 247.686 275.896 247.686C305.565 247.686 334.005 225.982 356.323 186.469C334.005 146.956 305.565 125.251 275.896 125.251C268.996 125.251 262.046 126.461 255.216 128.833L211.224 172.824H200.171V161.771L244.168 117.773C250.3 100.251 248.634 82.6334 239.243 65.3963C229.455 47.4532 211.282 30.6615 186.526 16.6717C161.79 30.6615 143.597 47.4532 133.81 65.3963C124.407 82.6544 122.767 100.275 128.909 117.836L172.843 161.771V172.824H161.79L117.773 128.807C110.963 126.437 104.035 125.251 97.1565 125.251C67.488 125.251 39.0478 146.956 16.7293 186.469C39.0478 225.982 67.488 247.686 97.1565 247.686ZM178.697 70.0044C171.057 62.0457 161.746 55.845 150.986 51.5215C147.148 55.7817 143.828 60.1572 141.084 64.5902C158.173 70.4106 171.118 81.4748 178.697 97.154V178.677H97.2328C81.356 171.033 70.3988 158.378 64.5714 141.045C60.1192 143.789 55.7629 147.09 51.4835 150.928C55.7728 161.665 61.9665 171 69.9823 178.677H41.0051C36.6873 178.677 33.1946 182.17 33.1946 186.488C33.1946 190.806 36.6873 194.298 41.0051 194.298H69.979C61.9648 201.971 55.7722 211.298 51.4835 222.048C55.7438 225.886 60.1192 229.187 64.5714 231.931C70.3988 214.579 81.3559 201.941 97.2326 194.298H178.697V275.782C171.013 291.737 158.272 302.766 141.141 308.501C143.885 312.896 147.167 317.233 150.986 321.454C161.742 317.132 171.061 310.935 178.697 302.987V331.99C178.697 336.308 182.189 339.8 186.507 339.8C190.825 339.8 194.318 336.308 194.318 331.99V302.989C201.957 310.948 211.269 317.145 222.029 321.454C225.829 317.233 229.129 312.896 231.874 308.501C214.742 302.766 202.001 291.736 194.318 275.781V194.298H275.782C291.659 201.942 302.616 214.598 308.443 231.931C312.896 229.187 317.252 225.886 321.531 222.048C317.242 211.311 311.048 201.976 303.033 194.298H332.009C336.327 194.298 339.82 190.806 339.82 186.488C339.82 182.17 336.327 178.677 332.009 178.677H303.033C311.043 171.005 317.229 161.678 321.531 150.928C317.271 147.09 312.896 143.789 308.443 141.045C302.616 158.397 291.659 171.035 275.782 178.677H194.318V97.2148C202.001 81.2592 214.742 70.2296 231.874 64.4942C229.13 60.0996 225.848 55.7626 222.029 51.5406C211.273 55.8628 201.954 62.0609 194.318 70.0086V40.986C194.318 36.6681 190.825 33.1754 186.507 33.1754C182.189 33.1754 178.697 36.6681 178.697 40.986V70.0044ZM260.544 59.9077C258.663 55.9737 256.495 52.078 254 48.2591H254.019C253.252 47.0885 252.446 45.9179 251.62 44.7472C255.228 44.4402 258.951 44.2675 262.77 44.2675C278.89 44.2675 296.488 47.0885 315.102 52.6537C317.616 53.4021 319.593 55.3788 320.341 57.8927C327.288 81.1132 329.841 102.511 328.248 121.356C323.297 117.863 318.23 114.888 313.049 112.432C313.298 98.4229 311.13 82.9171 306.563 66.4325C290.922 62.0954 276.203 59.8885 262.77 59.8885C262.396 59.8885 262.026 59.8933 261.657 59.8981C261.288 59.9029 260.918 59.9077 260.544 59.9077ZM313.049 260.544C313.299 274.553 311.13 290.059 306.563 306.543C290.923 310.9 276.204 313.087 262.77 313.087C262.022 313.087 261.273 313.087 260.544 313.068C258.664 317.002 256.495 320.898 254 324.717C253.233 325.907 252.427 327.077 251.601 328.229C255.228 328.536 258.951 328.708 262.751 328.708C278.871 328.708 296.488 325.887 315.083 320.322C317.597 319.574 319.574 317.597 320.322 315.083C327.269 291.863 329.822 270.446 328.229 251.62C323.278 255.113 318.192 258.088 313.03 260.544H313.049ZM112.47 313.068C114.37 317.002 116.52 320.898 119.014 324.717H118.995C119.763 325.887 120.569 327.058 121.394 328.229C117.786 328.536 114.063 328.708 110.244 328.708C94.1244 328.708 76.5267 325.887 57.912 320.322C55.3981 319.574 53.4214 317.597 52.673 315.083C45.7261 291.863 43.1737 270.465 44.7665 251.62C49.7177 255.113 54.784 258.088 59.9654 260.544C59.7159 274.553 61.8844 290.059 66.4518 306.543C82.092 310.88 96.7919 313.087 110.244 313.087C110.619 313.087 110.988 313.083 111.357 313.078C111.727 313.073 112.096 313.068 112.47 313.068ZM59.9654 112.432C59.7159 98.4231 61.8844 82.9172 66.4517 66.4326C82.092 62.0764 96.7919 59.8887 110.244 59.8887C110.993 59.8887 111.741 59.8887 112.47 59.9271C114.351 55.993 116.52 52.0974 119.014 48.2785C119.782 47.0887 120.588 45.918 121.413 44.7666C117.786 44.4596 114.063 44.2868 110.264 44.2868C94.1436 44.2868 76.5267 47.1078 57.9312 52.6731C55.4172 53.4215 53.4406 55.3981 52.6922 57.9121C45.7452 81.1325 43.1929 102.549 44.7857 121.375C49.7369 117.882 54.8223 114.908 59.9846 112.451L59.9654 112.432Z" fill="#00539F" fill-opacity="0.06"/>
</svg>
