<svg width="21" height="34" viewBox="0 0 21 34" fill="none" xmlns="http://www.w3.org/2000/svg">
<path d="M21 0.955299C21 0.704899 20.8994 0.464755 20.7204 0.287696C20.5414 0.110636 20.2986 0.011165 20.0455 0.011165H15.2727C12.8694 -0.107247 10.5164 0.720005 8.72783 2.31217C6.93925 3.90434 5.8605 6.13198 5.72727 8.50837V13.6067H0.954545C0.701384 13.6067 0.458592 13.7062 0.27958 13.8832C0.100568 14.0603 0 14.3004 0 14.5508V19.4603C0 19.7107 0.100568 19.9509 0.27958 20.1279C0.458592 20.305 0.701384 20.4045 0.954545 20.4045H5.72727V33.0559C5.72727 33.3063 5.82784 33.5464 6.00685 33.7235C6.18586 33.9005 6.42866 34 6.68182 34H12.4091C12.6623 34 12.905 33.9005 13.0841 33.7235C13.2631 33.5464 13.3636 33.3063 13.3636 33.0559V20.4045H18.3655C18.5777 20.4075 18.785 20.3404 18.9544 20.2139C19.1238 20.0874 19.2457 19.9086 19.3009 19.7058L20.6755 14.7963C20.7134 14.6568 20.7185 14.5105 20.6904 14.3688C20.6622 14.227 20.6015 14.0935 20.513 13.9786C20.4245 13.8637 20.3105 13.7704 20.1798 13.7059C20.0491 13.6415 19.9052 13.6075 19.7591 13.6067H13.3636V8.50837C13.4111 8.04098 13.633 7.60788 13.986 7.29364C14.3391 6.9794 14.7978 6.80658 15.2727 6.80893H20.0455C20.2986 6.80893 20.5414 6.70946 20.7204 6.5324C20.8994 6.35534 21 6.1152 21 5.8648V0.955299Z" fill="white"/>
</svg>
