<svg width="85" height="95" viewBox="0 0 85 95" fill="none" xmlns="http://www.w3.org/2000/svg">
<path fill-rule="evenodd" clip-rule="evenodd" d="M66.5911 33.3172C64.9842 46.1113 54.2028 57.3159 39.2369 55.3486C26.6446 53.6933 16.6449 41.7089 18.2336 26.813C19.5674 14.3068 31.0626 3.07329 45.724 4.94201C58.0978 6.51919 68.4052 18.8718 66.5911 33.3171V33.3172ZM15.42 61.762C14.8923 59.5947 7.22507 54.8216 3.31698 55.08C4.16139 57.7207 10.9774 62.0598 15.42 61.762ZM69.2963 62.4473C72.4211 62.455 74.7206 61.382 76.9541 60.1098C78.7007 59.1151 81.6393 57.1539 81.8474 55.3774C79.0122 55.4098 76.7214 56.6102 74.6235 57.7829C73.0738 58.649 69.7976 60.6934 69.2963 62.4474V62.4473ZM75.5002 54.8952C78.6852 54.4085 85.0478 47.4358 84.9997 43.7645C82.3042 43.6222 76.0915 51.4758 75.5002 54.8952ZM71.4265 53.9281C71.4265 54.9675 71.3659 56.0192 71.854 56.8707C72.6194 56.5258 72.8049 56.0348 73.2581 55.0606C74.6467 52.0747 76.0424 44.5477 74.2949 42.283C72.142 43.5813 71.4265 50.5935 71.4265 53.9281ZM66.3264 64.0642C68.8052 63.6801 70.8754 52.8137 69.4133 49.6862C66.8802 50.2328 65.3917 60.854 66.3264 64.0642ZM9.35974 54.8736C9.46158 53.1405 6.60859 49.3713 5.82124 48.3661C4.73231 46.9759 2.22105 44.0198 0.00348284 43.6608C-0.177198 47.4806 6.7207 54.8257 9.35974 54.8737V54.8736ZM13.2528 56.9169C13.9269 53.7924 13.2077 43.0944 10.5636 42.3339C8.80924 45.6607 10.6413 55.9015 13.2528 56.9169ZM18.4284 64.0767C18.6421 63.8039 18.869 63.9004 18.9569 62.346C19.1419 59.0741 18.0473 51.1286 15.7164 49.6359C13.6902 52.1875 16.1585 62.4901 18.4284 64.0767ZM76.8456 48.1381C79.421 48.2239 83.008 36.3786 81.0748 34.1161C78.622 35.6658 76.4218 44.0067 76.8456 48.1381ZM8.12272 48.2405C8.41133 44.5551 6.4058 35.1702 3.7839 34.1296C2.14729 36.8877 4.80889 44.5104 6.68664 47.2273C7.25631 48.0515 7.14195 48.0819 8.12272 48.2405ZM30.3216 94.0613C31.9367 94.2445 34.0257 94.6343 35.449 94.0667C35.5111 89.3859 35.6862 84.6656 35.6083 79.9619C35.4098 67.9873 18.6529 64.5191 8.48735 63.5719C9.22654 65.9417 12.3786 68.9695 14.1901 70.0984C16.6341 71.6212 20.1048 72.2935 23.2427 72.9729C26.9937 73.785 29.6469 74.1926 30.2736 77.8931C30.5599 79.5835 30.5851 81.1939 30.5417 82.7503C30.4358 86.5459 30.4681 90.2728 30.3215 94.0614L30.3216 94.0613ZM49.5672 91.6243C49.5884 92.5524 49.6143 93.4092 49.6751 94.338L54.5458 94.0969C54.42 90.3278 54.5112 86.6545 54.3964 82.9063C54.3432 81.1701 54.3454 79.3828 54.7178 77.5185C55.8441 71.8811 64.7488 73.903 70.8599 70.016C72.7011 68.8449 75.6285 65.8793 76.4917 63.5864C68.7137 64.0402 61.1455 66.0152 55.9239 69.4564C48.3454 74.4509 49.1249 78.8408 49.3751 84.3101C49.484 86.6938 49.5122 89.2267 49.567 91.6243H49.5672ZM34.9696 25.1281C35.5082 22.8748 39.0946 20.6488 42.5692 20.6896C45.8609 20.7284 49.203 22.9459 49.8454 25.1319L34.9696 25.1279V25.1281ZM55.1962 34.5158L50.4296 34.509C48.88 36.4086 48.8094 37.2928 46.6711 38.5097C45.0143 39.4527 42.402 39.9634 40.1041 39.3366C36.5667 38.3719 33.1107 34.5596 33.396 30.0986L56.0047 30.0644C56.3421 22.882 50.2391 16.44 43.6626 15.9635C26.2529 14.702 23.5321 39.9082 38.9802 43.9497C47.8399 46.2676 54.9679 38.7737 55.1962 34.5159V34.5158ZM62.3782 37.652L57.7518 37.6339C55.9941 39.8195 55.7033 42.2982 50.7275 45.2755C47.4805 47.2185 42.8478 48.186 38.3744 46.9783C21.1579 42.3303 22.2008 17.1164 38.4677 13.2075C48.0796 10.8977 54.6492 16.6523 57.519 22.6725L62.3274 22.7025C61.9981 19.2109 57.4341 13.785 54.2505 11.5972C40.2953 2.00748 21.221 12.3134 21.1944 30.0628C21.1663 48.8644 41.3481 58.0198 54.0557 48.8759C56.8271 46.8819 61.5584 42.1801 62.3783 37.652H62.3782ZM40.1332 60.2178L40.1936 94.4538L44.6412 94.52L44.7738 60.2622C54.9875 58.6327 58.5013 56.0557 63.8687 50.5545C71.5346 42.6975 73.8208 28.8264 68.6922 17.2258C67.0114 13.4241 64.9528 11.0841 62.9062 8.6348C58.528 3.3954 50.1965 0.0104039 42.5652 2.76913e-05C17.8717 -0.0332437 3.91936 29.9227 20.9422 50.3301C24.8585 55.0247 31.119 59.3076 40.1333 60.2178H40.1332Z" fill="white"/>
</svg>
