<svg width="40" height="45" viewBox="0 0 40 45" fill="none" xmlns="http://www.w3.org/2000/svg">
<path fill-rule="evenodd" clip-rule="evenodd" d="M31.337 15.6787C30.5808 21.6994 25.5072 26.9722 18.4644 26.0464C12.5386 25.2674 7.83291 19.6277 8.58053 12.6179C9.20819 6.73263 14.6177 1.44625 21.5172 2.32565C27.3402 3.06785 32.1907 8.88084 31.337 15.6786V15.6787ZM7.25646 29.0645C7.00812 28.0446 3.40003 25.7984 1.56093 25.92C1.9583 27.1627 5.16584 29.2046 7.25646 29.0645ZM32.61 29.387C34.0805 29.3906 35.1626 28.8857 36.2137 28.287C37.0356 27.8189 38.4185 26.8959 38.5164 26.0599C37.1822 26.0752 36.1042 26.6401 35.1169 27.1919C34.3877 27.5995 32.8459 28.5616 32.61 29.387V29.387ZM35.5295 25.8331C37.0283 25.604 40.0225 22.3227 39.9999 20.5951C38.7314 20.5281 35.8077 24.2239 35.5295 25.8331ZM33.6125 25.3779C33.6125 25.8671 33.584 26.362 33.8137 26.7627C34.1738 26.6004 34.2611 26.3693 34.4744 25.9109C35.1279 24.5058 35.7847 20.9636 34.9623 19.8979C33.9492 20.5088 33.6125 23.8087 33.6125 25.3779ZM31.2124 30.1478C32.3789 29.9671 33.3531 24.8535 32.6651 23.3817C31.4731 23.639 30.7726 28.6372 31.2124 30.1478ZM4.40458 25.8229C4.45251 25.0073 3.10992 23.2335 2.73941 22.7605C2.22697 22.1063 1.0452 20.7152 0.00163898 20.5462C-0.0833872 22.3438 3.16268 25.8003 4.40458 25.8229V25.8229ZM6.23663 26.7844C6.55386 25.3141 6.2154 20.2797 4.97111 19.9218C4.14552 21.4874 5.00767 26.3066 6.23663 26.7844ZM8.67219 30.1537C8.77276 30.0253 8.87955 30.0708 8.9209 29.3393C9.00794 27.7996 8.49285 24.0605 7.39594 23.3581C6.44245 24.5588 7.604 29.4071 8.67219 30.1537ZM36.1627 22.6532C37.3746 22.6936 39.0626 17.1194 38.1529 16.0546C36.9986 16.7839 35.9632 20.709 36.1627 22.6532ZM3.82246 22.7014C3.95828 20.9671 3.0145 16.5507 1.78066 16.061C1.01049 17.3589 2.26301 20.9461 3.14665 22.2246C3.41473 22.6125 3.36092 22.6268 3.82246 22.7014ZM14.269 44.2641C15.029 44.3503 16.0121 44.5338 16.6819 44.2667C16.7111 42.064 16.7935 39.8426 16.7568 37.6291C16.6634 31.994 8.77786 30.3619 3.99405 29.9162C4.3419 31.0314 5.82524 32.4562 6.67768 32.9875C7.82782 33.7041 9.46109 34.0205 10.9377 34.3402C12.7029 34.7224 13.9515 34.9142 14.2464 36.6556C14.3811 37.4511 14.393 38.2089 14.3725 38.9413C14.3227 40.7275 14.3379 42.4813 14.2689 44.2642L14.269 44.2641ZM23.3257 43.1173C23.3357 43.5541 23.3479 43.9573 23.3765 44.3943L25.6686 44.2809C25.6094 42.5072 25.6523 40.7786 25.5983 39.0147C25.5733 38.1977 25.5743 37.3566 25.7496 36.4793C26.2796 33.8264 30.47 34.7779 33.3459 32.9487C34.2123 32.3976 35.5899 31.002 35.9961 29.923C32.3358 30.1366 28.7743 31.066 26.3171 32.6854C22.7508 35.0357 23.1176 37.1016 23.2353 39.6753C23.2866 40.7971 23.2999 41.989 23.3257 43.1173H23.3257ZM16.4563 11.825C16.7098 10.7646 18.3974 9.71709 20.0326 9.7363C21.5816 9.75456 23.1543 10.7981 23.4567 11.8268L16.4563 11.8249V11.825ZM25.9747 16.2427L23.7316 16.2395C23.0023 17.1335 22.9691 17.5495 21.9629 18.1222C21.1832 18.566 19.9539 18.8063 18.8725 18.5114C17.2079 18.0574 15.5815 16.2634 15.7158 14.164L26.3551 14.148C26.5139 10.768 23.6419 7.73649 20.5471 7.51225C12.3543 6.91861 11.0739 18.7803 18.3436 20.6822C22.5129 21.773 25.8673 18.2465 25.9747 16.2428V16.2427ZM29.3545 17.7186L27.1773 17.7101C26.3501 18.7386 26.2133 19.9051 23.8718 21.3061C22.3438 22.2204 20.1637 22.6758 18.0586 22.1075C9.95665 19.9201 10.4474 8.05478 18.1024 6.21531C22.6257 5.12833 25.7173 7.83638 27.0678 10.6694L29.3305 10.6835C29.1756 9.04044 27.0278 6.48705 25.5297 5.4575C18.9625 0.944695 9.98638 5.79453 9.97385 14.1472C9.96063 22.995 19.4579 27.3034 25.438 23.0004C26.7422 22.0621 28.9687 19.8495 29.3545 17.7186H29.3545ZM18.8862 28.3378L18.9147 44.4488L21.0076 44.48L21.07 28.3587C25.8765 27.5919 27.53 26.3791 30.0558 23.7904C33.6634 20.0929 34.7392 13.5653 32.3258 8.10627C31.5348 6.31721 30.566 5.21607 29.6029 4.06344C27.5426 1.59784 23.6219 0.00489593 20.0307 1.30312e-05C8.41021 -0.0156441 1.8444 14.0813 9.85518 23.6847C11.6981 25.894 14.6442 27.9095 18.8863 28.3378H18.8862Z" fill="#00539F"/>
</svg>
