<svg width="212" height="36" viewBox="0 0 212 36" fill="none" xmlns="http://www.w3.org/2000/svg">
<path d="M209.736 22.3802H206.988L206.993 4.54804L201.904 17.9769C200.793 20.6358 197.175 20.2278 196.405 17.9769L191.26 5.39815L191.273 10.2094V17.366V17.5147V17.6634V17.8142V17.8564V20.2278C191.256 21.6407 190.519 22.3199 189.12 22.3802H186.805V18.6542V2.52828V2.47603L186.807 2.42779L186.811 2.37554L186.817 2.3253L186.823 2.27506L186.833 2.22682L186.841 2.17457L186.853 2.12634L186.865 2.07609L186.879 2.02585L186.895 1.97762L186.911 1.92938L186.93 1.88115L186.948 1.83091L186.968 1.78468L186.99 1.73645L187.012 1.68822L187.036 1.642L187.06 1.59577H187.062L187.088 1.54955L187.114 1.50533L187.143 1.45911L187.173 1.4149L187.203 1.37269L187.233 1.32848L187.265 1.28628H187.267L187.299 1.24407L187.333 1.20388L187.368 1.16368L187.404 1.12349L187.44 1.08329L187.478 1.04511L187.516 1.00894L187.557 0.970751L187.595 0.934576L187.635 0.900411L187.677 0.866246L187.719 0.83409L187.762 0.801935L187.804 0.769779H187.806L187.848 0.739634L187.892 0.709488L187.938 0.681352L187.983 0.655226L188.029 0.629099L188.075 0.602973L188.121 0.578857L188.17 0.55675L188.216 0.536653L188.264 0.514546L188.312 0.496458L188.36 0.478371L188.411 0.462293L188.459 0.446215L188.509 0.432147L188.557 0.420089L188.608 0.408031L188.658 0.399992L188.708 0.389943L188.758 0.383914L188.809 0.377885L188.859 0.375875L188.909 0.371856H188.961H189.49H194.066L199.315 14.4037L204.398 1.56563C204.794 0.769779 205.433 0.367837 206.319 0.371856H209.748H211.886V20.2278C211.882 21.701 211.287 22.3762 209.736 22.3802Z" fill="white"/>
<path d="M172.273 22.762C169.119 22.762 166.553 21.7351 164.567 19.6872C162.582 17.6332 161.591 14.9603 161.591 11.6664C161.591 8.18758 162.598 5.37398 164.614 3.2276C166.631 1.07922 169.296 0 172.624 0C175.768 0 178.308 1.03299 180.245 3.08491C182.185 5.14487 183.153 7.85798 183.153 11.2202C183.153 14.679 182.148 17.4704 180.137 19.5867C178.129 21.7029 175.504 22.762 172.273 22.762ZM172.488 4.26863C170.749 4.26863 169.365 4.91978 168.344 6.2281C167.323 7.53241 166.808 9.25674 166.808 11.4051C166.808 13.5837 167.323 15.308 168.344 16.5801C169.365 17.8483 170.707 18.4813 172.361 18.4813C174.075 18.4813 175.426 17.8643 176.433 16.6324C177.432 15.3964 177.936 13.6882 177.936 11.4996C177.936 9.21454 177.448 7.43795 176.479 6.17183C175.504 4.9037 174.174 4.26863 172.488 4.26863Z" fill="white"/>
<path d="M158.325 22.0506C156.87 22.543 155.321 22.762 153.225 22.762C149.852 22.762 147.196 21.7712 145.262 19.7856C143.325 17.8 142.36 15.1553 142.36 11.8493C142.36 8.33027 143.445 5.47446 145.62 3.28387C147.792 1.09529 150.616 0 154.085 0C155.387 0 156.289 0.0823983 157.234 0.247195C158.532 0.472283 159.489 0.91241 159.517 2.48401V3.77223C159.386 5.09663 158.283 4.97002 157.678 4.78111C156.681 4.47161 155.628 4.26863 154.483 4.26863C152.419 4.26863 150.749 4.91978 149.481 6.21806C148.212 7.51633 147.577 9.27684 147.577 11.4996C147.577 13.6259 148.176 15.3221 149.374 16.5862C150.57 17.8483 152.184 18.4813 154.209 18.4813C155.58 18.4813 156.472 18.1316 157.736 17.8503C158.478 17.6835 159.519 18.0231 159.517 18.819V19.9786C159.475 21.2708 159.083 21.7953 158.325 22.0506Z" fill="white"/>
<path d="M129.207 22.762C126.053 22.762 123.487 21.7351 121.501 19.6872C119.516 17.6332 118.525 14.9603 118.525 11.6664C118.525 8.18758 119.53 5.37398 121.548 3.2276C123.565 1.07922 126.23 0 129.558 0C132.701 0 135.242 1.03299 137.179 3.08491C139.118 5.14487 140.087 7.85798 140.087 11.2202C140.087 14.679 139.08 17.4704 137.069 19.5867C135.063 21.7029 132.438 22.762 129.207 22.762ZM129.422 4.26863C127.681 4.26863 126.298 4.91978 125.278 6.2281C124.257 7.53241 123.742 9.25674 123.742 11.4051C123.742 13.5837 124.257 15.308 125.278 16.5801C126.298 17.8483 127.639 18.4813 129.295 18.4813C131.009 18.4813 132.36 17.8643 133.365 16.6324C134.365 15.3964 134.87 13.6882 134.87 11.4996C134.87 9.21454 134.382 7.43795 133.413 6.17183C132.438 4.9037 131.108 4.26863 129.422 4.26863Z" fill="white"/>
<path d="M116.282 4.40532H108.519V9.81145H113.499C114.576 9.81145 115.655 10.8907 115.655 11.9679V13.8309H108.519V22.3802H105.715C104.636 22.3802 103.559 21.301 103.559 20.2238V0.371826H114.128C115.205 0.371826 116.282 1.45104 116.282 2.52825V4.40532Z" fill="white"/>
<path d="M95.8633 22.3863C95.0514 22.3723 93.928 22.5672 92.6799 21.0901L84.4542 8.54946C83.9236 7.74156 83.5518 7.13462 83.3488 6.72665H83.2906C83.3689 7.5024 83.4111 8.69014 83.4111 10.2838V20.6982C83.4111 21.4639 82.8766 22.3803 82.147 22.3803H80.8829H78.7285V20.2239V18.9256V2.52836C78.9456 0.876374 80.5915 0.335761 81.6788 0.371936C82.8786 0.335761 83.8995 0.482471 84.9044 1.65011L92.8025 13.7667C93.2025 14.3756 93.5683 14.9725 93.9099 15.5634H93.9722C93.8878 15.0549 93.8456 14.044 93.8456 12.5408V2.51027C93.8456 1.45115 94.9248 0.371936 96.01 0.371936H98.5282L98.5302 2.52836V16.1844V20.2239C98.4699 21.8276 96.8702 22.4044 95.8633 22.3863Z" fill="white"/>
<path d="M71.5741 22.3802H68.7686C68.7686 15.7622 68.7686 9.14423 68.7686 2.52825C68.7686 1.44903 69.8478 0.371826 70.925 0.371826H73.7306V20.2298C73.7306 21.301 72.6533 22.3802 71.5741 22.3802Z" fill="white"/>
<path d="M63.3963 22.3802H49.9614C48.0321 22.3802 47.2181 20.1555 48.4983 18.5939L59.0835 4.40532H48.6169V2.53227C48.6169 1.45104 49.6941 0.371826 50.7854 0.371826H63.0245H65.5005C65.5829 2.03386 65.2452 3.48487 64.3891 4.67864L54.4671 18.3547H65.5306V20.2298C65.5306 21.301 64.4534 22.3802 63.3963 22.3802Z" fill="white"/>
<path d="M44.9031 12.8501C44.9031 19.4561 41.8222 22.7621 35.6664 22.7621C29.6896 22.7621 26.7011 19.5344 26.7031 13.0813L26.7071 2.52825C26.7071 1.44903 27.3221 0.371826 28.8636 0.371826H31.6752V13.1375C31.6752 16.7008 33.0679 18.4814 35.8493 18.4814C38.5785 18.4814 39.9471 16.7631 39.9471 13.3224V2.52825C39.9471 1.44903 41.0444 0.371826 42.0975 0.371826H44.9031V12.8501Z" fill="white"/>
<path fill-rule="evenodd" clip-rule="evenodd" d="M21.8456 0.400146H2.86784C1.29022 0.400146 0 1.69239 0 3.27002V3.90911C0.518506 3.98749 1.09528 4.14022 1.71829 4.3633C3.6858 5.06067 6.13364 6.43934 8.76235 8.34254C10.8987 6.75084 12.8642 5.61334 14.4599 5.04661C16.0174 4.49594 17.2253 4.4879 17.9025 5.13905C18.6682 5.8726 18.6381 7.34371 17.9548 9.26901C17.2574 11.2365 15.8767 13.6844 13.9735 16.3131C15.5652 18.4494 16.7047 20.4149 17.2695 22.0106C17.2976 22.089 17.3257 22.1694 17.3499 22.2477H18.9757C20.5553 22.2477 21.8456 20.9575 21.8456 19.3779V0.400146ZM0 12.4504V19.3779C0 20.4511 0.596878 21.3916 1.47512 21.884C2.14436 21.9041 2.95627 21.7393 3.87672 21.4077C5.7558 20.7324 8.09312 19.3658 10.6495 17.4526C10.6696 17.4365 10.6997 17.4405 10.7138 17.4606C10.7278 17.4787 10.7258 17.5068 10.7098 17.5229C9.98826 18.2082 9.27282 18.8594 8.56339 19.4683C7.84391 20.0873 7.13246 20.6661 6.4371 21.1967L6.03113 21.5042C5.68144 21.7654 5.3378 22.0126 4.99816 22.2477H13.857C14.5141 21.4921 14.476 20.1597 13.857 18.4393C13.1837 16.5603 11.8151 14.223 9.90184 11.6666C9.88576 11.6465 9.88979 11.6184 9.9119 11.6023C9.92999 11.5882 9.95612 11.5902 9.9722 11.6063C10.6595 12.3278 11.3086 13.0453 11.9176 13.7527C12.5205 14.4541 13.0832 15.1454 13.6037 15.8207C14.5021 14.0662 15.0829 12.5107 15.2899 11.2546C15.4889 10.0407 15.3422 9.10824 14.7955 8.55155C14.062 7.80192 12.6873 7.81197 10.8886 8.4591C9.01154 9.13436 6.67426 10.501 4.1179 12.4142C4.09781 12.4303 4.06764 12.4263 4.05157 12.4062C4.0375 12.3861 4.04152 12.36 4.0576 12.3439C4.77708 11.6586 5.49456 11.0074 6.20197 10.4005C6.90337 9.79757 7.59469 9.23485 8.27197 8.71433C6.51749 7.81398 4.96197 7.23518 3.7059 7.02818C2.49203 6.82721 1.55954 6.97593 1.00285 7.52056C0.251212 8.25612 0.263252 9.62875 0.90837 11.4274C1.58363 13.3065 2.95025 15.6438 4.86551 18.1982C4.87958 18.2203 4.87555 18.2484 4.85545 18.2645C4.83736 18.2786 4.81125 18.2766 4.79518 18.2585C4.10785 17.539 3.4587 16.8215 2.84976 16.1141C2.22876 15.3946 1.65197 14.6812 1.1194 13.9878L0.811908 13.5819V13.5799C0.526528 13.198 0.255234 12.8202 0 12.4504Z" fill="white"/>
<path d="M82.8223 35.8754L83.9638 30.5396H87.1411L86.9683 31.3173H84.5788L84.2994 32.6237H86.6668L86.502 33.3934H84.1406L83.7749 35.1057H86.1363L85.9715 35.8754H82.8223ZM88.5902 34.7479L89.3398 34.35C89.5408 34.9409 89.8101 35.2363 90.1437 35.2363C90.3728 35.2363 90.5757 35.17 90.7526 35.0393C90.9294 34.9087 91.042 34.7339 91.0922 34.5148C91.1023 34.4726 91.1063 34.4224 91.1063 34.3641C91.1063 34.2113 91.0018 34.0224 90.7908 33.7933C90.7204 33.719 90.5838 33.5722 90.3768 33.3532L89.9648 32.9191C89.8362 32.7824 89.7517 32.6739 89.7115 32.5955C89.6151 32.4086 89.5669 32.2137 89.5669 32.0127C89.5669 31.9805 89.5709 31.9343 89.5809 31.874C89.589 31.8137 89.593 31.7695 89.593 31.7374C89.6392 31.5585 89.7176 31.3857 89.8281 31.2209C90.0472 30.8953 90.3366 30.6642 90.6943 30.5275C90.8812 30.4532 91.0621 30.417 91.2369 30.417C91.5484 30.417 91.8177 30.5135 92.0408 30.7064C92.2157 30.8571 92.3865 31.0902 92.5573 31.4058L91.8217 31.8881L91.6087 31.5384C91.5203 31.3957 91.4017 31.2972 91.251 31.241L91.0661 31.2148C90.849 31.2148 90.6802 31.2771 90.5596 31.3997C90.4391 31.5243 90.3768 31.6932 90.3768 31.9082C90.3768 32.0087 90.4431 32.1453 90.5777 32.3142C90.6099 32.3564 90.6541 32.4006 90.7144 32.4508L91.0922 32.7684C91.661 33.2447 91.9444 33.731 91.9444 34.2254C91.9444 34.7519 91.7032 35.1981 91.2168 35.5598C90.8229 35.8533 90.427 36 90.0331 36C89.6452 36 89.3297 35.8834 89.0926 35.6483C88.8956 35.4553 88.7268 35.1559 88.5902 34.7479ZM96.3496 31.3113H95.2162L95.3809 30.5396H98.4337L98.2689 31.3113H97.1374L96.1607 35.8754H95.3749L96.3496 31.3113ZM100.874 34.8444C100.996 34.8444 101.101 34.8886 101.185 34.979C101.271 35.0675 101.314 35.174 101.314 35.2986C101.314 35.3488 101.312 35.385 101.306 35.4071C101.279 35.5538 101.197 35.6865 101.062 35.801C100.928 35.9156 100.783 35.9718 100.632 35.9718C100.504 35.9718 100.397 35.9256 100.313 35.8352C100.228 35.7427 100.186 35.6322 100.186 35.5036C100.186 35.4594 100.188 35.4272 100.192 35.4071C100.228 35.2564 100.313 35.1258 100.447 35.0132C100.58 34.9007 100.721 34.8444 100.874 34.8444ZM107.506 32.4046H106.75C106.868 31.8359 107.126 31.3676 107.52 31.0018C107.938 30.6119 108.428 30.417 108.991 30.417C109.212 30.417 109.421 30.4612 109.618 30.5476C110.002 30.7164 110.243 31.0078 110.339 31.4198C110.361 31.5163 110.373 31.6148 110.373 31.7153C110.373 32.3624 110.052 32.9673 109.411 33.532L108.888 33.9923L107.596 35.1117H109.754L109.596 35.8754H105.713L108.944 33.0176C109.063 32.911 109.178 32.7905 109.286 32.6518C109.489 32.4006 109.59 32.1413 109.59 31.874C109.59 31.655 109.515 31.4821 109.367 31.3575C109.218 31.2349 109.031 31.1726 108.806 31.1726C108.356 31.1726 108 31.3817 107.733 31.7997L107.61 32.0388C107.604 32.0449 107.57 32.1654 107.506 32.4046ZM112.697 33.2085C112.847 32.4508 113.097 31.8338 113.444 31.3515C113.894 30.7285 114.455 30.417 115.13 30.417C115.679 30.417 116.075 30.6441 116.318 31.0983C116.461 31.3636 116.531 31.653 116.531 31.9645C116.531 32.4448 116.495 32.8588 116.423 33.2085C116.27 33.9239 116.009 34.5409 115.639 35.0635C115.193 35.6885 114.628 36 113.941 36C113.267 36 112.837 35.6905 112.654 35.0715C112.594 34.8705 112.566 34.5691 112.566 34.1711C112.566 34.0184 112.578 33.8576 112.606 33.6828C112.62 33.5964 112.65 33.4376 112.697 33.2085ZM113.448 33.2226C113.43 33.2909 113.406 33.4175 113.378 33.6004C113.33 33.9018 113.308 34.1289 113.308 34.2797C113.308 34.9409 113.575 35.2705 114.112 35.2705C114.594 35.2705 114.992 34.9529 115.307 34.3158C115.546 33.8375 115.695 33.307 115.755 32.7201C115.774 32.5413 115.784 32.3945 115.784 32.28C115.784 31.5424 115.516 31.1726 114.986 31.1726C114.552 31.1726 114.204 31.3957 113.943 31.8399C113.784 32.1152 113.679 32.3403 113.635 32.5131L113.448 33.2226ZM118.923 33.2085C119.075 32.4508 119.325 31.8338 119.672 31.3515C120.123 30.7285 120.683 30.417 121.356 30.417C121.907 30.417 122.303 30.6441 122.546 31.0983C122.689 31.3636 122.759 31.653 122.759 31.9645C122.759 32.4448 122.723 32.8588 122.651 33.2085C122.498 33.9239 122.237 34.5409 121.867 35.0635C121.421 35.6885 120.856 36 120.167 36C119.494 36 119.065 35.6905 118.883 35.0715C118.822 34.8705 118.792 34.5691 118.792 34.1711C118.792 34.0184 118.806 33.8576 118.834 33.6828C118.848 33.5964 118.877 33.4376 118.923 33.2085ZM119.676 33.2226C119.656 33.2909 119.634 33.4175 119.606 33.6004C119.558 33.9018 119.536 34.1289 119.536 34.2797C119.536 34.9409 119.803 35.2705 120.34 35.2705C120.82 35.2705 121.22 34.9529 121.535 34.3158C121.775 33.8375 121.923 33.307 121.984 32.7201C122.002 32.5413 122.01 32.3945 122.01 32.28C122.01 31.5424 121.744 31.1726 121.214 31.1726C120.78 31.1726 120.432 31.3957 120.171 31.8399C120.01 32.1152 119.908 32.3403 119.861 32.5131L119.676 33.2226ZM126.19 32.4046H125.432C125.553 31.8359 125.808 31.3676 126.202 31.0018C126.62 30.6119 127.11 30.417 127.675 30.417C127.894 30.417 128.103 30.4612 128.3 30.5476C128.684 30.7164 128.925 31.0078 129.022 31.4198C129.046 31.5163 129.056 31.6148 129.056 31.7153C129.056 32.3624 128.736 32.9673 128.093 33.532L127.571 33.9923L126.278 35.1117H128.437L128.28 35.8754H124.395L127.627 33.0176C127.747 32.911 127.862 32.7905 127.97 32.6518C128.171 32.4006 128.272 32.1413 128.272 31.874C128.272 31.655 128.198 31.4821 128.049 31.3575C127.9 31.2349 127.713 31.1726 127.488 31.1726C127.04 31.1726 126.682 31.3817 126.417 31.7997L126.292 32.0388C126.288 32.0449 126.254 32.1654 126.19 32.4046Z" fill="white"/>
<path fill-rule="evenodd" clip-rule="evenodd" d="M59.0052 32.6941H69.2226C69.4256 32.6941 69.5904 32.8609 69.5904 33.0639C69.5904 33.2669 69.4256 33.4317 69.2226 33.4317H59.0052C58.8023 33.4317 58.6375 33.2669 58.6375 33.0639C58.6375 32.8609 58.8023 32.6941 59.0052 32.6941Z" fill="white"/>
<path fill-rule="evenodd" clip-rule="evenodd" d="M141.988 32.6941H152.206C152.409 32.6941 152.573 32.8609 152.573 33.0639C152.573 33.2669 152.409 33.4317 152.206 33.4317H141.988C141.785 33.4317 141.618 33.2669 141.618 33.0639C141.618 32.8609 141.785 32.6941 141.988 32.6941Z" fill="white"/>
</svg>
